<svg xmlns="http://www.w3.org/2000/svg" width="800" height="600" viewBox="0 0 800 600">
  <defs>
    <linearGradient id="bantanGrad" x1="0%" y1="0%" x2="100%" y2="100%">
      <stop offset="0%" style="stop-color:#FFFAF0"/>
      <stop offset="50%" style="stop-color:#FDF5E6"/>
      <stop offset="100%" style="stop-color:#FAEBD7"/>
    </linearGradient>
  </defs>
  <rect width="800" height="600" fill="url(#bantanGrad)"/>
  <g transform="translate(400,300)">
    <ellipse cx="0" cy="0" rx="160" ry="100" fill="#FFF" stroke="#DEB887" stroke-width="2"/>
    <g fill="none" stroke="#F5DEB3" stroke-width="8" stroke-linecap="round">
      <path d="M-120,-20 Q-80,-40 -40,-20 Q0,-40 40,-20 Q80,-40 120,-20"/>
      <path d="M-100,10 Q-60,-10 -20,10 Q20,-10 60,10 Q100,-10 120,10"/>
      <path d="M-110,40 Q-70,20 -30,40 Q10,20 50,40 Q90,20 110,40"/>
      <path d="M-80,65 Q-40,45 0,65 Q40,45 80,65"/>
    </g>
    <circle cx="-50" cy="-5" r="14" fill="#CD853F" opacity="0.8"/>
    <circle cx="20" cy="-15" r="12" fill="#CD853F" opacity="0.8"/>
    <circle cx="60" cy="5" r="15" fill="#CD853F" opacity="0.8"/>
    <circle cx="-30" cy="30" r="11" fill="#CD853F" opacity="0.8"/>
    <circle cx="30" cy="50" r="13" fill="#CD853F" opacity="0.8"/>
    <rect x="-60" y="-50" width="20" height="16" fill="#32CD32" opacity="0.5" rx="4"/>
  </g>
  <text x="400" y="520" text-anchor="middle" font-family="Georgia, serif" font-size="36" fill="#8B4513" font-weight="bold">Махтай Бантан</text>
  <text x="400" y="555" text-anchor="middle" font-family="Arial, sans-serif" font-size="18" fill="#A0522D" opacity="0.8">Mongolian Meat Soup with Noodles</text>
</svg>