<svg xmlns="http://www.w3.org/2000/svg" width="800" height="600" viewBox="0 0 800 600">
  <defs>
    <linearGradient id="stroganoffGrad" x1="0%" y1="0%" x2="100%" y2="100%">
      <stop offset="0%" style="stop-color:#FFF8DC"/>
      <stop offset="50%" style="stop-color:#FAEBD7"/>
      <stop offset="100%" style="stop-color:#F5DEB3"/>
    </linearGradient>
  </defs>
  <rect width="800" height="600" fill="url(#stroganoffGrad)"/>
  <g transform="translate(400,300)">
    <ellipse cx="0" cy="0" rx="160" ry="100" fill="#FFF" stroke="#DEB887" stroke-width="2"/>
    <ellipse cx="0" cy="0" rx="140" ry="85" fill="#FFF5EE"/>
    <path d="M-100,-20 Q-60,-50 -20,-30 Q20,-50 60,-20 Q80,10 60,40 Q20,60 -20,40 Q-60,60 -100,40 Q-120,10 -100,-20" fill="#8B4513" opacity="0.85"/>
    <path d="M-80,-10 Q-40,-35 0,-20 Q40,-35 80,-10" fill="none" stroke="#654321" stroke-width="2" opacity="0.5"/>
    <ellipse cx="-50" cy="-5" rx="25" ry="15" fill="#A0522D" opacity="0.6" transform="rotate(-10)"/>
    <ellipse cx="30" cy="5" rx="30" ry="18" fill="#A0522D" opacity="0.6" transform="rotate(5)"/>
    <ellipse cx="0" cy="20" rx="35" ry="20" fill="#A0522D" opacity="0.6" transform="rotate(-5)"/>
    <circle cx="-70" cy="-30" r="8" fill="#228B22" opacity="0.7"/>
    <circle cx="60" cy="-25" r="7" fill="#228B22" opacity="0.7"/>
    <circle cx="20" cy="-40" r="6" fill="#32CD32" opacity="0.6"/>
  </g>
  <text x="400" y="520" text-anchor="middle" font-family="Georgia, serif" font-size="36" fill="#8B4513" font-weight="bold">Beef Stroganoff</text>
  <text x="400" y="555" text-anchor="middle" font-family="Arial, sans-serif" font-size="18" fill="#A0522D" opacity="0.8">Russian Classic with Sour Cream</text>
</svg>