<svg xmlns="http://www.w3.org/2000/svg" width="800" height="600" viewBox="0 0 800 600">
  <defs>
    <linearGradient id="tsuivanGrad" x1="0%" y1="0%" x2="100%" y2="100%">
      <stop offset="0%" style="stop-color:#F0E68C"/>
      <stop offset="50%" style="stop-color:#EEE8AA"/>
      <stop offset="100%" style="stop-color:#DAA520"/>
    </linearGradient>
  </defs>
  <rect width="800" height="600" fill="url(#tsuivanGrad)"/>
  <g transform="translate(400,300)">
    <ellipse cx="0" cy="0" rx="170" ry="110" fill="#FFF" stroke="#DAA520" stroke-width="2"/>
    <g stroke="#F5DEB3" stroke-width="8" stroke-linecap="round">
      <line x1="-100" y1="-40" x2="100" y2="-40"/>
      <line x1="-120" y1="-10" x2="120" y2="-10"/>
      <line x1="-110" y1="20" x2="110" y2="20"/>
      <line x1="-90" y1="50" x2="90" y2="50"/>
      <line x1="-80" y1="-60" x2="80" y2="-60"/>
      <line x1="-60" y1="-70" x2="60" y2="-70"/>
    </g>
    <circle cx="-60" cy="-25" r="12" fill="#CD853F" opacity="0.8"/>
    <circle cx="40" cy="-35" r="10" fill="#CD853F" opacity="0.8"/>
    <circle cx="20" cy="35" r="11" fill="#CD853F" opacity="0.8"/>
    <circle cx="-30" cy="5" r="9" fill="#CD853F" opacity="0.8"/>
    <circle cx="70" cy="10" r="10" fill="#CD853F" opacity="0.8"/>
    <circle cx="-50" cy="45" r="8" fill="#CD853F" opacity="0.8"/>
    <rect x="-20" y="-50" width="15" height="12" fill="#FF6347" opacity="0.7" rx="3"/>
    <rect x="30" y="40" width="18" height="14" fill="#228B22" opacity="0.6" rx="3"/>
  </g>
  <text x="400" y="520" text-anchor="middle" font-family="Georgia, serif" font-size="36" fill="#8B4513" font-weight="bold">Махтай Цуйван</text>
  <text x="400" y="555" text-anchor="middle" font-family="Arial, sans-serif" font-size="18" fill="#A0522D" opacity="0.8">Mongolian Noodles with Meat</text>
</svg>