<svg xmlns="http://www.w3.org/2000/svg" width="800" height="600" viewBox="0 0 800 600">
  <defs>
    <linearGradient id="khorhogGrad" x1="0%" y1="0%" x2="100%" y2="100%">
      <stop offset="0%" style="stop-color:#2F4F4F"/>
      <stop offset="50%" style="stop-color:#36454F"/>
      <stop offset="100%" style="stop-color:#1C1C1C"/>
    </linearGradient>
  </defs>
  <rect width="800" height="600" fill="url(#khorhogGrad)"/>
  <g transform="translate(400,300)">
    <ellipse cx="0" cy="40" rx="140" ry="80" fill="#1C1C1C" stroke="#4A4A4A" stroke-width="3"/>
    <ellipse cx="0" cy="40" rx="120" ry="65" fill="#2F4F4F"/>
    <circle cx="-60" cy="20" r="15" fill="#8B4513"/>
    <circle cx="30" cy="30" r="18" fill="#CD853F"/>
    <circle cx="-20" cy="50" r="16" fill="#A0522D"/>
    <circle cx="50" cy="10" r="14" fill="#8B4513"/>
    <circle cx="-40" cy="55" r="12" fill="#CD853F"/>
    <rect x="-80" y="-20" width="25" height="20" fill="#FF6347" rx="5" opacity="0.8"/>
    <rect x="20" y="-30" width="30" height="22" fill="#FF6347" rx="5" opacity="0.8"/>
    <rect x="-30" y="-40" width="22" height="18" fill="#FFD700" rx="4" opacity="0.7"/>
    <path d="M-100,-60 Q-50,-90 0,-70 Q50,-90 100,-60" fill="none" stroke="#FF4500" stroke-width="4" opacity="0.6"/>
    <path d="M-80,-80 Q-40,-100 0,-85 Q40,-100 80,-80" fill="none" stroke="#FF6347" stroke-width="3" opacity="0.5"/>
  </g>
  <text x="400" y="520" text-anchor="middle" font-family="Georgia, serif" font-size="36" fill="#FFD700" font-weight="bold">Хорхог</text>
  <text x="400" y="555" text-anchor="middle" font-family="Arial, sans-serif" font-size="18" fill="#DEB887" opacity="0.8">Traditional Stone Cooked BBQ</text>
</svg>