<svg xmlns="http://www.w3.org/2000/svg" width="800" height="600" viewBox="0 0 800 600">
  <defs>
    <linearGradient id="steakGrad" x1="0%" y1="0%" x2="100%" y2="100%">
      <stop offset="0%" style="stop-color:#8B4513"/>
      <stop offset="50%" style="stop-color:#A0522D"/>
      <stop offset="100%" style="stop-color:#654321"/>
    </linearGradient>
  </defs>
  <rect width="800" height="600" fill="url(#steakGrad)"/>
  <ellipse cx="400" cy="300" rx="220" ry="140" fill="#CD853F" opacity="0.3"/>
  <ellipse cx="400" cy="300" rx="200" ry="120" fill="#DEB887" opacity="0.4"/>
  <g transform="translate(400,300)">
    <path d="M-80,-40 Q-40,-70 0,-50 Q40,-70 80,-40 Q90,0 80,40 Q40,70 0,50 Q-40,70 -80,40 Q-90,0 -80,-40" fill="#8B2500" opacity="0.8"/>
    <ellipse cx="-30" cy="-10" rx="60" ry="30" fill="#A03000" opacity="0.6" transform="rotate(-15)"/>
    <ellipse cx="20" cy="10" rx="50" ry="25" fill="#702000" opacity="0.5" transform="rotate(10)"/>
    <path d="M-60,-20 L-40,-10 L-50,0 Z" fill="#FFD700" opacity="0.4"/>
    <path d="M30,-15 L50,-5 L40,5 Z" fill="#FFD700" opacity="0.4"/>
    <path d="M-10,20 L10,25 L0,35 Z" fill="#90EE90" opacity="0.3"/>
  </g>
  <text x="400" y="520" text-anchor="middle" font-family="Georgia, serif" font-size="36" fill="#FFF" opacity="0.9" font-weight="bold">Стэйк</text>
  <text x="400" y="555" text-anchor="middle" font-family="Arial, sans-serif" font-size="18" fill="#DEB887" opacity="0.8">Premium Ribeye Steak</text>
</svg>