<svg xmlns="http://www.w3.org/2000/svg" width="800" height="600" viewBox="0 0 800 600">
  <defs>
    <linearGradient id="bologneseGrad" x1="0%" y1="0%" x2="100%" y2="100%">
      <stop offset="0%" style="stop-color:#FFE4E1"/>
      <stop offset="50%" style="stop-color:#FFDAB9"/>
      <stop offset="100%" style="stop-color:#FFA07A"/>
    </linearGradient>
  </defs>
  <rect width="800" height="600" fill="url(#bologneseGrad)"/>
  <g transform="translate(400,300)">
    <ellipse cx="0" cy="0" rx="160" ry="100" fill="#FFF" stroke="#FFA07A" stroke-width="2"/>
    <g stroke="#F5DEB3" stroke-width="6" stroke-linecap="round">
      <path d="M-100,-30 Q-50,-50 0,-30 Q50,-50 100,-30" fill="none"/>
      <path d="M-110,0 Q-60,-20 0,0 Q60,-20 110,0" fill="none"/>
      <path d="M-100,30 Q-50,10 0,30 Q50,10 100,30" fill="none"/>
      <path d="M-80,55 Q-40,35 0,55 Q40,35 80,55" fill="none"/>
    </g>
    <circle cx="-50" cy="-15" r="15" fill="#8B0000" opacity="0.7"/>
    <circle cx="30" cy="-20" r="18" fill="#8B0000" opacity="0.7"/>
    <circle cx="60" cy="15" r="16" fill="#8B0000" opacity="0.7"/>
    <circle cx="-30" cy="25" r="14" fill="#8B0000" opacity="0.7"/>
    <circle cx="10" cy="40" r="17" fill="#8B0000" opacity="0.7"/>
    <circle cx="-70" cy="10" r="12" fill="#8B0000" opacity="0.7"/>
    <circle cx="50" cy="-40" r="10" fill="#228B22" opacity="0.6"/>
    <circle cx="-20" cy="-45" r="8" fill="#228B22" opacity="0.6"/>
  </g>
  <text x="400" y="520" text-anchor="middle" font-family="Georgia, serif" font-size="36" fill="#8B0000" font-weight="bold">Bolognese</text>
  <text x="400" y="555" text-anchor="middle" font-family="Arial, sans-serif" font-size="18" fill="#CD5C5C" opacity="0.8">Italian Spaghetti with Meat Sauce</text>
</svg>