<svg xmlns="http://www.w3.org/2000/svg" width="800" height="600" viewBox="0 0 800 600">
  <defs>
    <linearGradient id="tacosGrad" x1="0%" y1="0%" x2="100%" y2="100%">
      <stop offset="0%" style="stop-color:#FFE4B5"/>
      <stop offset="50%" style="stop-color:#FFDAB9"/>
      <stop offset="100%" style="stop-color:#F4A460"/>
    </linearGradient>
  </defs>
  <rect width="800" height="600" fill="url(#tacosGrad)"/>
  <g transform="translate(400,300)">
    <path d="M-120,-40 L-80,60 L-40,-40 Z" fill="#F4A460" stroke="#D2691E" stroke-width="2"/>
    <path d="M-50,-40 L-10,60 L30,-40 Z" fill="#F4A460" stroke="#D2691E" stroke-width="2"/>
    <path d="M20,-40 L60,60 L100,-40 Z" fill="#F4A460" stroke="#D2691E" stroke-width="2"/>
    <ellipse cx="-80" cy="-10" rx="25" ry="15" fill="#8B4513"/>
    <ellipse cx="-10" cy="-5" rx="28" ry="16" fill="#CD853F"/>
    <ellipse cx="60" cy="-8" rx="26" ry="14" fill="#A0522D"/>
    <circle cx="-80" cy="-20" r="10" fill="#FF6347" opacity="0.7"/>
    <circle cx="-10" cy="-25" r="12" fill="#32CD32" opacity="0.6"/>
    <circle cx="60" cy="-22" r="9" fill="#FFD700" opacity="0.7"/>
    <circle cx="-90" cy="5" r="7" fill="#32CD32" opacity="0.5"/>
    <circle cx="-20" cy="10" r="8" fill="#FF6347" opacity="0.6"/>
    <circle cx="70" cy="8" r="7" fill="#32CD32" opacity="0.5"/>
  </g>
  <text x="400" y="520" text-anchor="middle" font-family="Georgia, serif" font-size="36" fill="#8B4513" font-weight="bold">Махтай Такос</text>
  <text x="400" y="555" text-anchor="middle" font-family="Arial, sans-serif" font-size="18" fill="#A0522D" opacity="0.8">Mexican Beef Tacos</text>
</svg>